#!OML:ASF F:\VICON\USERDATA\INSTALL\rory3\rory3.ASF
:FULLY-SPECIFIED
:DEGREES
152
root 1.10257 13.6325 -19.2108 21.2253 -0.298708 -0.82242
lowerback 31.6216 0.888672 -0.30256
upperback 3.4956 1.29826 1.94306
thorax -12.618 0.629972 1.74519
lowerneck -28.0444 -5.54229 -7.85002
upperneck -11.9813 -4.82616 11.4309
head 1.05024 -1.76241 4.49238
rclavicle 4.37326e-015 1.35174e-014
rhumerus -11.1263 7.77484 -79.7186
rradius 81.3768
rwrist -7.47293
rhand -17.8346 24.2666
rfingers 7.12502
rthumb 8.42993 -5.54517
lclavicle 4.37326e-015 1.35174e-014
lhumerus -10.1041 -2.26156 84.643
lradius 79.9752
lwrist 2.41726
lhand -23.9155 17.0554
lfingers 7.12502
lthumb 2.55897 47.0198
rfemur -77.2407 0.793548 25.1647
rtibia 92.2192
rfoot -27.1388 -15.6347
rtoes -4.77609
lfemur -78.6474 5.95479 -23.7732
ltibia 90.6553
lfoot -29.7794 0.405762
ltoes -2.83503
153
root 1.09043 13.5981 -19.1896 20.9279 -0.0710323 -0.813093
lowerback 31.7386 0.828572 -0.232234
upperback 3.60677 1.24216 1.92448
thorax -12.5367 0.600382 1.70804
lowerneck -28.0431 -5.52777 -7.66356
upperneck -12.2508 -4.8415 11.4687
head 0.966637 -1.78012 4.47636
rclavicle 1.19271e-015 9.14409e-015
rhumerus -11.1085 7.60063 -79.5362
rradius 81.8672
rwrist -7.5436
rhand -17.8159 24.8481
rfingers 7.12502
rthumb 8.44805 -4.9629
lclavicle 1.19271e-015 9.14409e-015
lhumerus -9.18974 -2.00564 84.9243
lradius 80.6603
lwrist 2.03743
lhand -23.8625 16.62
lfingers 7.12502
lthumb 2.61011 46.5837
rfemur -76.9927 0.823065 25.2038
rtibia 92.5804
rfoot -27.4189 -16.1306
rtoes -4.72104
lfemur -78.4577 5.82735 -23.6207
ltibia 91.0257
lfoot -29.9512 0.433368
ltoes -2.83368
154
root 1.0798 13.59 -19.1633 20.5464 0.28559 -0.810831
lowerback 31.9241 0.712227 -0.0146183
upperback 3.66915 1.16536 1.89316
thorax -12.5355 0.55517 1.58529
lowerneck -28.2716 -5.56696 -7.63613
upperneck -12.2357 -4.88081 11.6605
head 1.01134 -1.78581 4.52903
rclavicle 7.55382e-015 4.77083e-015
rhumerus -11.4603 7.34589 -79.2411
rradius 82.7056
rwrist -7.75648
rhand -17.9104 25.5975
rfingers 7.12502
rthumb 8.35682 -4.21714
lclavicle 7.55382e-015 4.77083e-015
lhumerus -8.23656 -1.92848 85.1996
lradius 81.6791
lwrist 2.5529
lhand -22.5328 14.7712
lfingers 7.12502
lthumb 3.89429 44.7154
rfemur -76.4083 0.749083 25.2619
rtibia 92.7814
rfoot -27.8277 -16.541
rtoes -4.11442
lfemur -77.9735 5.58317 -23.4181
ltibia 91.1757
lfoot -30.1351 0.519589
ltoes -2.93739
155
root 1.06393 13.5964 -19.1306 20.1147 0.944435 -0.664759
lowerback 31.9589 0.484486 0.222464
upperback 3.70308 0.957327 1.87343
thorax -12.5002 0.451882 1.51683
lowerneck -28.2831 -5.58965 -7.64521
upperneck -12.2135 -4.90198 11.8903
head 1.03485 -1.78588 4.60208
rclavicle -6.36111e-015 -1.19271e-014
rhumerus -11.8443 7.09072 -78.8903
rradius 83.6587
rwrist -8.51004
rhand -17.6994 26.0594
rfingers 7.12502
rthumb 8.56042 -3.74711
lclavicle -6.36111e-015 -1.19271e-014
lhumerus -7.47202 -2.01039 85.4399
lradius 83.3139
lwrist 3.62541
lhand -21.1253 14.8172
lfingers 7.12502
lthumb 5.25335 44.7321
rfemur -75.6388 0.343883 25.2948
rtibia 92.877
rfoot -28.0909 -17.0139
rtoes -5.20052
lfemur -77.3012 5.05807 -23.2578
ltibia 91.2104
lfoot -30.3222 0.551645
ltoes -3.41217
156
root 1.04009 13.6074 -19.0855 19.4895 2.0565 -0.583993
lowerback 31.9697 0.0667237 0.663802
upperback 3.86778 0.589191 1.94137
thorax -12.3028 0.269528 1.49374
lowerneck -28.6043 -5.6291 -7.54913
upperneck -11.9761 -4.97488 12.0037
head 1.15636 -1.80647 4.61151
rclavicle -2.38542e-015 -1.59028e-015
rhumerus -12.0508 6.81074 -78.537
rradius 84.846
rwrist -9.55921
rhand -17.4354 25.9698
rfingers 7.12502
rthumb 8.8152 -3.82605
lclavicle -2.38542e-015 -1.59028e-015
lhumerus -6.68937 -2.16372 85.6071
lradius 85.1792
lwrist 4.29806
lhand -20.2949 14.8666
lfingers 7.12502
lthumb 6.05513 44.7601
rfemur -74.5359 -0.421272 25.5733
rtibia 92.8764
rfoot -28.3325 -17.6298
rtoes -6.82823
lfemur -76.3613 4.24297 -22.8481
ltibia 91.1751
lfoot -30.5078 0.576189
ltoes -4.04412
157
root 1.02476 13.6156 -19.074 19.5037 1.69441 -0.884814
lowerback 31.5023 0.291487 0.516493
upperback 3.85515 0.816146 1.9476
thorax -12.1288 0.377939 1.49265
lowerneck -28.7801 -5.61937 -7.39941
upperneck -11.8212 -5.00615 11.995
head 1.22375 -1.81894 4.5785
rclavicle -1.19271e-015 3.97569e-016
rhumerus -12.3139 6.65206 -78.107
rradius 86.1884
rwrist -10.7248
rhand -17.1572 25.442
rfingers 7.12502
rthumb 9.08366 -4.34244
lclavicle -1.19271e-015 3.97569e-016
lhumerus -6.01884 -2.46972 85.5803
lradius 87.1683
lwrist 5.25699
lhand -20.6566 14.5114
lfingers 7.12502
lthumb 5.70592 44.4146
rfemur -74.3832 0.414924 25.6149
rtibia 92.6595
rfoot -27.8997 -17.9656
rtoes -7.37983
lfemur -76.3648 4.68588 -22.6375
ltibia 91.1414
lfoot -30.4891 0.839043
ltoes -4.81748
158
root 1.00349 13.6374 -19.0555 19.337 1.8608 -1.00975
lowerback 31.2941 0.31069 0.445916
upperback 3.72612 0.829357 2.03329
thorax -12.1907 0.389566 1.61853
lowerneck -28.6252 -5.60938 -7.46213
upperneck -11.6394 -4.99546 12.1228
head 1.27032 -1.80721 4.62877
rclavicle 7.95139e-016 -2.10712e-014
rhumerus -12.4929 6.51719 -77.5265
rradius 87.3085
rwrist -11.7218
rhand -16.7356 25.4921
rfingers 7.12502
rthumb 9.49048 -4.27417
lclavicle 7.95139e-016 -2.10712e-014
lhumerus -5.63552 -2.84073 85.5044
lradius 89.4929
lwrist 6.22048
lhand -22.0936 14.2701
lfingers 7.12502
lthumb 4.31843 44.2061
rfemur -73.9266 0.718916 25.6932
rtibia 92.3838
rfoot -27.6944 -18.3382
rtoes -7.63289
lfemur -76.0016 4.6021 -22.3527
ltibia 90.9513
lfoot -30.494 0.981895
ltoes -5.1841
